<svg height="512pt" viewBox="0 0 512 512" width="512pt" xmlns="http://www.w3.org/2000/svg"><path d="m512 60v120s-37.597656 15.699219-75.699219 31h-392.101562l-44.199219-31v-120h91.902344l19.796875-16.800781 10.5 16.800781h89.703125l14.699218-15.601562 15.597657 15.601562h89.703125l15.898437-17.402344 14.398438 17.402344zm0 0" fill="#ff641a"/><path d="m512 60v120s-37.597656 15.699219-75.699219 31h-180.300781v-151h75.902344l15.898437-17.402344 14.398438 17.402344zm0 0" fill="#f03800"/><path d="m181 75c0 42.898438-19.5 75-45 75v-30c3.601562 0 15-15.902344 15-45 0-5.398438-.300781-10.5-1.199219-15-2.699219-19.5-10.800781-30-13.800781-30s-11.101562 10.5-13.800781 30h-30.296875c3.898437-35.097656 21.597656-60 44.097656-60s40.199219 24.902344 44.097656 60c.601563 4.800781.902344 9.902344.902344 15zm0 0" fill="#3e5959"/><path d="m301 75c0 42.898438-19.5 75-45 75v-30c3.601562 0 15-15.902344 15-45 0-5.398438-.300781-10.5-1.199219-15-2.699219-19.5-10.800781-30-13.800781-30s-11.101562 10.5-13.800781 30h-30.296875c3.898437-35.097656 21.597656-60 44.097656-60s40.199219 24.902344 44.097656 60c.601563 4.800781.902344 9.902344.902344 15zm0 0" fill="#3e5959"/><path d="m269.800781 60c.898438 4.5 1.199219 9.601562 1.199219 15 0 29.097656-11.398438 45-15 45v30c25.5 0 45-32.101562 45-75 0-5.097656-.300781-10.199219-.902344-15-3.898437-35.097656-21.597656-60-44.097656-60v30c3 0 11.101562 10.5 13.800781 30zm0 0" fill="#293939"/><path d="m421 75c0 42.898438-19.5 75-45 75v-30c3.601562 0 15-15.902344 15-45 0-5.398438-.300781-10.5-1.199219-15-2.699219-19.5-10.800781-30-13.800781-30s-11.101562 10.5-13.800781 30h-30.296875c3.898437-35.097656 21.597656-60 44.097656-60s40.199219 24.902344 44.097656 60c.601563 4.800781.902344 9.902344.902344 15zm0 0" fill="#293939"/><path d="m0 180v332h512v-332zm0 0" fill="#dae9fa"/><path d="m256 180h256v332h-256zm0 0" fill="#afc5f4"/><path d="m136 332c-24.8125 0-45-20.1875-45-45s20.1875-45 45-45 45 20.1875 45 45-20.1875 45-45 45zm0 0" fill="#00ab94"/><path d="m211 452h-150v-45c0-41.351562 33.648438-75 75-75s75 33.648438 75 75zm0 0" fill="#00ab94"/><g fill="#95a8ce"><path d="m271 242h180v30h-180zm0 0"/><path d="m271 302h180v30h-180zm0 0"/><path d="m271 362h180v30h-180zm0 0"/><path d="m271 422h180v30h-180zm0 0"/></g></svg>